<mxfile host="app.diagrams.net" modified="2022-03-25T06:42:49.331Z" agent="5.0 (Macintosh; Intel Mac OS X 10_15_7) AppleWebKit/537.36 (KHTML, like Gecko) Chrome/99.0.4844.83 Safari/537.36" etag="jn9hvu5bKIajDM97Gefb" version="17.1.5" type="github">
  <diagram id="b0gJ3AU0Z-31uCYqc-lS" name="ページ1">
    <mxGraphModel dx="1471" dy="1014" grid="1" gridSize="10" guides="1" tooltips="1" connect="1" arrows="1" fold="1" page="1" pageScale="1" pageWidth="1169" pageHeight="827" math="0" shadow="0">
      <root>
        <mxCell id="0" />
        <mxCell id="1" parent="0" />
      </root>
    </mxGraphModel>
  </diagram>
</mxfile>
